<svg width="80" height="105" viewBox="0 0 80 105" fill="none" xmlns="http://www.w3.org/2000/svg">
<g clip-path="url(#clip0_29_552)">
<path d="M64.617 21.67C66.3262 23.25 68.4677 24.02 71.1823 24.02C75.0229 24.02 77.1142 22.51 78.019 21.61C78.9239 20.71 80.0097 19.12 80.0097 16.71C80.0097 11.65 75.4854 11.09 75.4854 11.09C75.4854 11.09 78.7128 10.22 78.7128 6.28C78.7128 4.67 78.0693 3.14 76.903 1.98C75.5558 0.67 73.6556 0 71.2527 0C68.5984 0 66.6881 0.69 65.2504 2.19C64.6673 2.77 63.3602 4.33 63.0787 6.91H67.965C68.0655 6.13 68.4074 5.38 68.9 4.92C69.3625 4.46 70.1065 4.19 70.9309 4.19C71.7554 4.19 72.5295 4.49 73.0021 4.96C73.4646 5.42 73.7762 6.25 73.7762 6.99C73.7762 7.73 73.4344 8.48 72.8312 9C72.1877 9.55 71.4035 9.8 70.4282 9.76V12.9C70.6092 12.88 70.8002 12.87 71.0214 12.87C71.5141 12.87 72.7407 12.95 73.6053 13.65C73.8667 13.86 74.7012 14.67 74.7012 16.1C74.7012 17 74.4398 17.72 73.8768 18.36C73.1428 19.15 72.2078 19.55 71.1019 19.55C69.9959 19.55 68.9805 19.17 68.337 18.48C67.7941 17.94 67.412 17.1 67.2813 16.23H61.832C62.2342 19.13 63.7322 20.88 64.617 21.68V21.67Z" fill="black"/>
<path d="M63.5816 88.78H55.2669V96.74H17.4939L38.2655 73.4C42.0358 69.1 46.721 63.75 50.451 58.58C55.6289 51.24 57.7402 45.59 57.7402 39.06C57.7402 23.39 45.8865 12.01 29.5688 12.01C20.49 12.01 13.422 15.03 7.95262 21.25C3.75003 26.06 1.57836 31.86 1.13598 39.44H10.2751C10.4762 35.17 11.5117 31.66 13.422 28.74C17.0314 23.28 22.7119 20.28 29.418 20.28C40.6986 20.28 48.591 27.95 48.591 38.93C48.591 41.93 48.0481 46.7 43.3127 53.44C41.0405 56.84 34.5254 64.45 32.3839 66.96L0.140628 104.02C-0.191155 104.4 0.0803038 105 0.59306 105H63.5816V88.78Z" fill="black"/>
</g>
<defs>
<clipPath id="clip0_29_552">
<rect width="80" height="105" fill="white"/>
</clipPath>
</defs>
</svg>
