<svg width="50" height="50" viewBox="0 0 50 50" fill="none" xmlns="http://www.w3.org/2000/svg">
<g clip-path="url(#clip0_51_42517)">
<path d="M25 50C38.8071 50 50 38.8071 50 25C50 11.1929 38.8071 0 25 0C11.1929 0 0 11.1929 0 25C0 38.8071 11.1929 50 25 50Z" fill="black"/>
<path d="M10.5996 34.305V15.265H17.9646C19.3346 15.265 20.9596 15.465 22.1296 16.75C22.7846 17.465 23.2996 18.635 23.2996 20.32C23.2996 21.15 23.1546 21.86 22.7596 22.66C22.3596 23.4 21.9296 23.83 21.2196 24.145C22.2196 24.26 23.2196 24.715 23.8196 25.285C24.5896 26.025 25.1046 27.255 25.1046 28.765C25.1046 30.565 24.4196 31.79 23.7046 32.505C22.6746 33.56 20.8796 34.305 18.5396 34.305H10.6046H10.5996ZM15.5346 22.775H16.4496C16.9646 22.775 17.8196 22.72 18.3346 22.175C18.6496 21.86 18.7896 21.345 18.7896 20.92C18.7896 20.435 18.6196 19.95 18.3346 19.635C18.0196 19.32 17.4196 19.065 16.4496 19.065H15.5346V22.775ZM15.5346 30.45H16.6496C18.0196 30.45 19.1596 30.305 19.7046 29.68C19.9346 29.425 20.1046 28.995 20.1046 28.455C20.1046 27.855 19.9046 27.37 19.6196 27.085C19.0196 26.485 17.7946 26.455 16.5646 26.455H15.5396V30.45H15.5346Z" fill="white"/>
<path d="M40.5046 28.765H30.9996C30.9996 29.45 31.2546 30.365 31.7996 30.905C32.0846 31.19 32.6546 31.535 33.6846 31.535C33.7996 31.535 34.5996 31.505 35.1696 31.19C35.4546 31.02 35.7696 30.735 35.9696 30.335H40.3346C40.1346 31.05 39.7346 32.045 38.7946 32.96C37.8546 33.875 36.3696 34.73 33.5996 34.73C31.9146 34.73 29.8896 34.36 28.3196 32.79C27.4896 31.96 26.4346 30.395 26.4346 27.965C26.4346 25.825 27.2346 24.11 28.3496 23.025C29.4046 21.995 31.0596 21.17 33.5746 21.17C35.0596 21.17 36.9696 21.485 38.4846 22.91C40.2846 24.625 40.5096 26.85 40.5096 28.275V28.76L40.5046 28.765ZM36.3096 26.14C36.1946 25.655 35.9096 25.11 35.5696 24.77C34.9696 24.17 34.1446 24.085 33.6846 24.085C32.9146 24.085 32.3146 24.285 31.8296 24.77C31.5146 25.115 31.2296 25.57 31.1446 26.14H36.3096Z" fill="white"/>
<path d="M38.3551 18.055H28.5901C28.3084 18.055 28.0801 18.2833 28.0801 18.565V19.01C28.0801 19.2917 28.3084 19.52 28.5901 19.52H38.3551C38.6367 19.52 38.8651 19.2917 38.8651 19.01V18.565C38.8651 18.2833 38.6367 18.055 38.3551 18.055Z" fill="white"/>
</g>
<defs>
<clipPath id="clip0_51_42517">
<rect width="50" height="50" fill="white"/>
</clipPath>
</defs>
</svg>
