<svg width="50" height="50" viewBox="0 0 50 50" fill="none" xmlns="http://www.w3.org/2000/svg">
<g clip-path="url(#clip0_51_42493)">
<path fill-rule="evenodd" clip-rule="evenodd" d="M25.5197 28.225L25.5047 28.235C25.3447 28.345 25.1547 28.395 24.9797 28.395C24.7897 28.395 24.6047 28.335 24.4647 28.21L21.6597 26.12L14.0547 31.755H35.9547L28.3497 26.12L25.5247 28.225H25.5197Z" fill="black"/>
<path fill-rule="evenodd" clip-rule="evenodd" d="M12.3047 19.2V30.86L20.1747 25L12.3047 19.2Z" fill="black"/>
<path fill-rule="evenodd" clip-rule="evenodd" d="M37.7601 30.865V19.195L29.8301 25L37.7601 30.865Z" fill="black"/>
<path fill-rule="evenodd" clip-rule="evenodd" d="M25 0C11.195 0 0 11.195 0 25C0 38.805 11.195 50 25 50C38.805 50 50 38.805 50 25C50 11.195 38.805 0 25 0ZM39.5 32.595C39.5 32.86 39.41 33.085 39.25 33.245C39.09 33.405 38.865 33.495 38.6 33.495H11.4C11.135 33.495 10.91 33.405 10.75 33.245C10.59 33.085 10.5 32.86 10.5 32.595V17.405C10.5 17.17 10.595 16.935 10.765 16.765C10.92 16.605 11.14 16.505 11.4 16.505H38.595C38.86 16.505 39.075 16.61 39.23 16.765C39.4 16.935 39.495 17.17 39.495 17.41V32.6L39.5 32.595Z" fill="black"/>
</g>
<defs>
<clipPath id="clip0_51_42493">
<rect width="50" height="50" fill="white"/>
</clipPath>
</defs>
</svg>
