<svg width="50" height="50" viewBox="0 0 50 50" fill="none" xmlns="http://www.w3.org/2000/svg">
<g clip-path="url(#clip0_51_42511)">
<path d="M25 50C38.8071 50 50 38.8071 50 25C50 11.1929 38.8071 0 25 0C11.1929 0 0 11.1929 0 25C0 38.8071 11.1929 50 25 50Z" fill="black"/>
<path d="M31.3946 40.4H18.5996C13.6346 40.4 9.59961 36.36 9.59961 31.4V18.605C9.59961 13.64 13.6396 9.59998 18.5996 9.59998H31.3946C36.3596 9.59998 40.3996 13.64 40.3996 18.605V31.4C40.3996 36.365 36.3596 40.4 31.3946 40.4ZM18.6046 12.9C15.4596 12.9 12.8996 15.46 12.8996 18.605V31.4C12.8996 34.545 15.4596 37.105 18.6046 37.105H31.3996C34.5446 37.105 37.1046 34.545 37.1046 31.4V18.605C37.1046 15.46 34.5446 12.9 31.3996 12.9H18.6046Z" fill="white"/>
<path d="M24.9999 32.58C20.8199 32.58 17.4199 29.18 17.4199 25C17.4199 20.82 20.8199 17.42 24.9999 17.42C29.1799 17.42 32.5799 20.82 32.5799 25C32.5799 29.18 29.1799 32.58 24.9999 32.58ZM24.9999 20.42C22.4749 20.42 20.4199 22.475 20.4199 25C20.4199 27.525 22.4749 29.58 24.9999 29.58C27.5249 29.58 29.5799 27.525 29.5799 25C29.5799 22.475 27.5249 20.42 24.9999 20.42Z" fill="white"/>
<path d="M32.5547 18.92C33.6593 18.92 34.5547 18.0246 34.5547 16.92C34.5547 15.8154 33.6593 14.92 32.5547 14.92C31.4501 14.92 30.5547 15.8154 30.5547 16.92C30.5547 18.0246 31.4501 18.92 32.5547 18.92Z" fill="white"/>
</g>
<defs>
<clipPath id="clip0_51_42511">
<rect width="50" height="50" fill="white"/>
</clipPath>
</defs>
</svg>
