<svg width="50" height="50" viewBox="0 0 50 50" fill="none" xmlns="http://www.w3.org/2000/svg">
<g clip-path="url(#clip0_50_42489)">
<path d="M39.2246 21.655H37.4346V24.19H39.2246V21.655Z" fill="black"/>
<path d="M25 0C11.195 0 0 11.195 0 25C0 38.805 11.195 50 25 50C38.805 50 50 38.805 50 25C50 11.195 38.805 0 25 0ZM42.355 20.465C42.355 19.78 42.905 19.275 43.545 19.275C44.185 19.275 44.74 19.825 44.735 20.465C44.735 21.105 44.185 21.655 43.545 21.655H42.355V20.465ZM6.755 30.74C5.715 29.105 5.265 28.21 5.265 28.21C5.415 27.765 5.56 27.465 5.56 27.02C5.94 25.26 6.04 23.45 5.855 21.655H8.54C8.54 21.655 8.685 29.105 6.75 30.74H6.755ZM13.01 30.44C13.01 30.44 12.715 32.08 11.82 32.08H9.44L8.545 29.995H10.33V18.38H13.01V30.445V30.44ZM14.795 21.805H17.475C17.325 23.445 17.475 25.23 17.775 27.17C17.925 27.615 17.925 28.06 18.07 28.36C18.07 28.36 17.475 29.1 16.58 30.89C14.495 29.25 14.795 21.805 14.795 21.805ZM22.095 32.08H17.925L19.265 29.695H23.14L22.095 32.08ZM20.305 28.51C19.86 28.51 19.56 28.065 19.71 27.615L21.2 24.19H19.86C19.41 24.19 19.115 23.745 19.265 23.295L21.205 18.38H23.735L22.395 22.105H24.63L22.395 26.575H24.33L23.585 28.515H20.31L20.305 28.51ZM32.225 32.08H23.585L24.775 29.55H27.16V21.655H25.375V19.12H31.335V21.8H29.995V29.695H32.23V32.08H32.225ZM44.585 30.29C44.565 31.35 43.71 32.205 42.65 32.225H40.565L39.67 30.14H42.2V26.565H37.43V32.075H34.9V26.415H32.37V24.03H34.905V21.645H33.115V19.265H34.9V18.075H37.43V19.265H39.22C40.56 19.265 41.75 20.455 41.6 21.795V24.18H42.2C43.685 24.18 44.73 25.22 44.58 26.71V30.285L44.585 30.29Z" fill="black"/>
</g>
<defs>
<clipPath id="clip0_50_42489">
<rect width="50" height="50" fill="white"/>
</clipPath>
</defs>
</svg>
